<?xml version="1.0" encoding="UTF-8"?><svg id="Layer_2" xmlns="http://www.w3.org/2000/svg" viewBox="0 0 2880.52 1920.36"><defs><style>.cls-1{fill:none;stroke:#949494;stroke-miterlimit:10;stroke-width:.5px;}</style></defs><g id="Grid"><g><rect class="cls-1" x=".25" y="480.25" width="120" height="120"/><rect class="cls-1" x="120.25" y="480.25" width="120" height="120"/><rect class="cls-1" x="240.25" y="480.25" width="120" height="120"/><rect class="cls-1" x="360.25" y="480.25" width="120" height="120"/><rect class="cls-1" x="480.25" y="480.25" width="120" height="120"/><rect class="cls-1" x="600.25" y="480.25" width="120" height="120"/><rect class="cls-1" x=".25" y="360.25" width="120" height="120"/><rect class="cls-1" x="120.25" y="360.25" width="120" height="120"/><rect class="cls-1" x="240.25" y="360.25" width="120" height="120"/><rect class="cls-1" x="360.25" y="360.25" width="120" height="120"/><rect class="cls-1" x="480.25" y="360.25" width="120" height="120"/><rect class="cls-1" x="600.25" y="360.25" width="120" height="120"/><rect class="cls-1" x=".25" y="240.25" width="120" height="120"/><rect class="cls-1" x="120.25" y="240.25" width="120" height="120"/><rect class="cls-1" x="240.25" y="240.25" width="120" height="120"/><rect class="cls-1" x="360.25" y="240.25" width="120" height="120"/><rect class="cls-1" x="480.25" y="240.25" width="120" height="120"/><rect class="cls-1" x="600.25" y="240.25" width="120" height="120"/><rect class="cls-1" x=".25" y="120.25" width="120" height="120"/><rect class="cls-1" x="120.25" y="120.25" width="120" height="120"/><rect class="cls-1" x="240.25" y="120.25" width="120" height="120"/><rect class="cls-1" x="360.25" y="120.25" width="120" height="120"/><rect class="cls-1" x="480.25" y="120.25" width="120" height="120"/><rect class="cls-1" x="600.25" y="120.25" width="120" height="120"/><rect class="cls-1" x=".25" y=".25" width="120" height="120"/><rect class="cls-1" x="120.25" y=".25" width="120" height="120"/><rect class="cls-1" x="240.25" y=".25" width="120" height="120"/><rect class="cls-1" x="360.25" y=".25" width="120" height="120"/><rect class="cls-1" x="480.25" y=".25" width="120" height="120"/><rect class="cls-1" x="600.25" y=".25" width="120" height="120"/><rect class="cls-1" x=".25" y="960.25" width="120" height="120"/><rect class="cls-1" x="120.25" y="960.25" width="120" height="120"/><rect class="cls-1" x="240.25" y="960.25" width="120" height="120"/><rect class="cls-1" x="360.25" y="960.25" width="120" height="120"/><rect class="cls-1" x="480.25" y="960.25" width="120" height="120"/><rect class="cls-1" x="600.25" y="960.25" width="120" height="120"/><rect class="cls-1" x=".25" y="840.25" width="120" height="120"/><rect class="cls-1" x="120.25" y="840.25" width="120" height="120"/><rect class="cls-1" x="240.25" y="840.25" width="120" height="120"/><rect class="cls-1" x="360.25" y="840.25" width="120" height="120"/><rect class="cls-1" x="480.25" y="840.25" width="120" height="120"/><rect class="cls-1" x="600.25" y="840.25" width="120" height="120"/><rect class="cls-1" x=".25" y="720.25" width="120" height="120"/><rect class="cls-1" x="120.25" y="720.25" width="120" height="120"/><rect class="cls-1" x="240.25" y="720.25" width="120" height="120"/><rect class="cls-1" x="360.25" y="720.25" width="120" height="120"/><rect class="cls-1" x="480.25" y="720.25" width="120" height="120"/><rect class="cls-1" x="600.25" y="720.25" width="120" height="120"/><rect class="cls-1" x=".25" y="600.25" width="120" height="120"/><rect class="cls-1" x="120.25" y="600.25" width="120" height="120"/><rect class="cls-1" x="240.25" y="600.25" width="120" height="120"/><rect class="cls-1" x="360.25" y="600.25" width="120" height="120"/><rect class="cls-1" x="480.25" y="600.25" width="120" height="120"/><rect class="cls-1" x="600.25" y="600.25" width="120" height="120"/><g><rect class="cls-1" x="720.25" y="480.25" width="120" height="120"/><rect class="cls-1" x="840.25" y="480.25" width="120" height="120"/><rect class="cls-1" x="960.25" y="480.25" width="120" height="120"/><rect class="cls-1" x="1080.25" y="480.25" width="120" height="120"/><rect class="cls-1" x="1200.25" y="480.25" width="120" height="120"/><rect class="cls-1" x="1320.25" y="480.25" width="120" height="120"/><rect class="cls-1" x="1440.25" y="480.25" width="120" height="120"/><rect class="cls-1" x="1560.25" y="480.25" width="120" height="120"/><rect class="cls-1" x="1680.25" y="480.25" width="120" height="120"/><rect class="cls-1" x="720.25" y="360.25" width="120" height="120"/><rect class="cls-1" x="840.25" y="360.25" width="120" height="120"/><rect class="cls-1" x="960.25" y="360.25" width="120" height="120"/><rect class="cls-1" x="1080.25" y="360.25" width="120" height="120"/><rect class="cls-1" x="1200.25" y="360.25" width="120" height="120"/><rect class="cls-1" x="1320.25" y="360.25" width="120" height="120"/><rect class="cls-1" x="1440.25" y="360.25" width="120" height="120"/><rect class="cls-1" x="1560.25" y="360.25" width="120" height="120"/><rect class="cls-1" x="1680.25" y="360.25" width="120" height="120"/><rect class="cls-1" x="720.25" y="240.25" width="120" height="120"/><rect class="cls-1" x="840.25" y="240.25" width="120" height="120"/><rect class="cls-1" x="960.25" y="240.25" width="120" height="120"/><rect class="cls-1" x="1080.25" y="240.25" width="120" height="120"/><rect class="cls-1" x="1200.25" y="240.25" width="120" height="120"/><rect class="cls-1" x="1320.25" y="240.25" width="120" height="120"/><rect class="cls-1" x="1440.25" y="240.25" width="120" height="120"/><rect class="cls-1" x="1560.25" y="240.25" width="120" height="120"/><rect class="cls-1" x="1680.25" y="240.25" width="120" height="120"/><rect class="cls-1" x="720.25" y="120.25" width="120" height="120"/><rect class="cls-1" x="840.25" y="120.25" width="120" height="120"/><rect class="cls-1" x="960.25" y="120.25" width="120" height="120"/><rect class="cls-1" x="1080.25" y="120.25" width="120" height="120"/><rect class="cls-1" x="1200.25" y="120.25" width="120" height="120"/><rect class="cls-1" x="1320.25" y="120.25" width="120" height="120"/><rect class="cls-1" x="1440.25" y="120.25" width="120" height="120"/><rect class="cls-1" x="1560.25" y="120.25" width="120" height="120"/><rect class="cls-1" x="1680.25" y="120.25" width="120" height="120"/><rect class="cls-1" x="720.25" y=".25" width="120" height="120"/><rect class="cls-1" x="840.25" y=".25" width="120" height="120"/><rect class="cls-1" x="960.25" y=".25" width="120" height="120"/><rect class="cls-1" x="1080.25" y=".25" width="120" height="120"/><rect class="cls-1" x="1200.25" y=".25" width="120" height="120"/><rect class="cls-1" x="1320.25" y=".25" width="120" height="120"/><rect class="cls-1" x="1440.25" y=".25" width="120" height="120"/><rect class="cls-1" x="1560.25" y=".25" width="120" height="120"/><rect class="cls-1" x="1680.25" y=".25" width="120" height="120"/><rect class="cls-1" x="720.25" y="960.25" width="120" height="120"/><rect class="cls-1" x="840.25" y="960.25" width="120" height="120"/><rect class="cls-1" x="960.25" y="960.25" width="120" height="120"/><rect class="cls-1" x="1080.25" y="960.25" width="120" height="120"/><rect class="cls-1" x="1200.25" y="960.25" width="120" height="120"/><rect class="cls-1" x="1320.25" y="960.25" width="120" height="120"/><rect class="cls-1" x="1440.25" y="960.25" width="120" height="120"/><rect class="cls-1" x="1560.25" y="960.25" width="120" height="120"/><rect class="cls-1" x="1680.25" y="960.25" width="120" height="120"/><rect class="cls-1" x="720.25" y="840.25" width="120" height="120"/><rect class="cls-1" x="840.25" y="840.25" width="120" height="120"/><rect class="cls-1" x="960.25" y="840.25" width="120" height="120"/><rect class="cls-1" x="1080.25" y="840.25" width="120" height="120"/><rect class="cls-1" x="1200.25" y="840.25" width="120" height="120"/><rect class="cls-1" x="1320.25" y="840.25" width="120" height="120"/><rect class="cls-1" x="1440.25" y="840.25" width="120" height="120"/><rect class="cls-1" x="1560.25" y="840.25" width="120" height="120"/><rect class="cls-1" x="1680.25" y="840.25" width="120" height="120"/><rect class="cls-1" x="720.25" y="720.25" width="120" height="120"/><rect class="cls-1" x="840.25" y="720.25" width="120" height="120"/><rect class="cls-1" x="960.25" y="720.25" width="120" height="120"/><rect class="cls-1" x="1080.25" y="720.25" width="120" height="120"/><rect class="cls-1" x="1200.25" y="720.25" width="120" height="120"/><rect class="cls-1" x="1320.25" y="720.25" width="120" height="120"/><rect class="cls-1" x="1440.25" y="720.25" width="120" height="120"/><rect class="cls-1" x="1560.25" y="720.25" width="120" height="120"/><rect class="cls-1" x="1680.25" y="720.25" width="120" height="120"/><rect class="cls-1" x="720.25" y="600.25" width="120" height="120"/><rect class="cls-1" x="840.25" y="600.25" width="120" height="120"/><rect class="cls-1" x="960.25" y="600.25" width="120" height="120"/><rect class="cls-1" x="1080.25" y="600.25" width="120" height="120"/><rect class="cls-1" x="1200.25" y="600.25" width="120" height="120"/><rect class="cls-1" x="1320.25" y="600.25" width="120" height="120"/><rect class="cls-1" x="1440.25" y="600.25" width="120" height="120"/><rect class="cls-1" x="1560.25" y="600.25" width="120" height="120"/><rect class="cls-1" x="1680.25" y="600.25" width="120" height="120"/></g><g><rect class="cls-1" x="1800.27" y="480.25" width="120" height="120"/><rect class="cls-1" x="1920.27" y="480.25" width="120" height="120"/><rect class="cls-1" x="2040.27" y="480.25" width="120" height="120"/><rect class="cls-1" x="2160.27" y="480.25" width="120" height="120"/><rect class="cls-1" x="2280.27" y="480.25" width="120" height="120"/><rect class="cls-1" x="2400.27" y="480.25" width="120" height="120"/><rect class="cls-1" x="2520.27" y="480.25" width="120" height="120"/><rect class="cls-1" x="2640.27" y="480.25" width="120" height="120"/><rect class="cls-1" x="2760.27" y="480.25" width="120" height="120"/><rect class="cls-1" x="1800.27" y="360.25" width="120" height="120"/><rect class="cls-1" x="1920.27" y="360.25" width="120" height="120"/><rect class="cls-1" x="2040.27" y="360.25" width="120" height="120"/><rect class="cls-1" x="2160.27" y="360.25" width="120" height="120"/><rect class="cls-1" x="2280.27" y="360.25" width="120" height="120"/><rect class="cls-1" x="2400.27" y="360.25" width="120" height="120"/><rect class="cls-1" x="2520.27" y="360.25" width="120" height="120"/><rect class="cls-1" x="2640.27" y="360.25" width="120" height="120"/><rect class="cls-1" x="2760.27" y="360.25" width="120" height="120"/><rect class="cls-1" x="1800.27" y="240.25" width="120" height="120"/><rect class="cls-1" x="1920.27" y="240.25" width="120" height="120"/><rect class="cls-1" x="2040.27" y="240.25" width="120" height="120"/><rect class="cls-1" x="2160.27" y="240.25" width="120" height="120"/><rect class="cls-1" x="2280.27" y="240.25" width="120" height="120"/><rect class="cls-1" x="2400.27" y="240.25" width="120" height="120"/><rect class="cls-1" x="2520.27" y="240.25" width="120" height="120"/><rect class="cls-1" x="2640.27" y="240.25" width="120" height="120"/><rect class="cls-1" x="2760.27" y="240.25" width="120" height="120"/><rect class="cls-1" x="1800.27" y="120.25" width="120" height="120"/><rect class="cls-1" x="1920.27" y="120.25" width="120" height="120"/><rect class="cls-1" x="2040.27" y="120.25" width="120" height="120"/><rect class="cls-1" x="2160.27" y="120.25" width="120" height="120"/><rect class="cls-1" x="2280.27" y="120.25" width="120" height="120"/><rect class="cls-1" x="2400.27" y="120.25" width="120" height="120"/><rect class="cls-1" x="2520.27" y="120.25" width="120" height="120"/><rect class="cls-1" x="2640.27" y="120.25" width="120" height="120"/><rect class="cls-1" x="2760.27" y="120.25" width="120" height="120"/><rect class="cls-1" x="1800.27" y=".25" width="120" height="120"/><rect class="cls-1" x="1920.27" y=".25" width="120" height="120"/><rect class="cls-1" x="2040.27" y=".25" width="120" height="120"/><rect class="cls-1" x="2160.27" y=".25" width="120" height="120"/><rect class="cls-1" x="2280.27" y=".25" width="120" height="120"/><rect class="cls-1" x="2400.27" y=".25" width="120" height="120"/><rect class="cls-1" x="2520.27" y=".25" width="120" height="120"/><rect class="cls-1" x="2640.27" y=".25" width="120" height="120"/><rect class="cls-1" x="2760.27" y=".25" width="120" height="120"/><rect class="cls-1" x="1800.27" y="960.25" width="120" height="120"/><rect class="cls-1" x="1920.27" y="960.25" width="120" height="120"/><rect class="cls-1" x="2040.27" y="960.25" width="120" height="120"/><rect class="cls-1" x="2160.27" y="960.25" width="120" height="120"/><rect class="cls-1" x="2280.27" y="960.25" width="120" height="120"/><rect class="cls-1" x="2400.27" y="960.25" width="120" height="120"/><rect class="cls-1" x="2520.27" y="960.25" width="120" height="120"/><rect class="cls-1" x="2640.27" y="960.25" width="120" height="120"/><rect class="cls-1" x="2760.27" y="960.25" width="120" height="120"/><rect class="cls-1" x="1800.27" y="840.25" width="120" height="120"/><rect class="cls-1" x="1920.27" y="840.25" width="120" height="120"/><rect class="cls-1" x="2040.27" y="840.25" width="120" height="120"/><rect class="cls-1" x="2160.27" y="840.25" width="120" height="120"/><rect class="cls-1" x="2280.27" y="840.25" width="120" height="120"/><rect class="cls-1" x="2400.27" y="840.25" width="120" height="120"/><rect class="cls-1" x="2520.27" y="840.25" width="120" height="120"/><rect class="cls-1" x="2640.27" y="840.25" width="120" height="120"/><rect class="cls-1" x="2760.27" y="840.25" width="120" height="120"/><rect class="cls-1" x="1800.27" y="720.25" width="120" height="120"/><rect class="cls-1" x="1920.27" y="720.25" width="120" height="120"/><rect class="cls-1" x="2040.27" y="720.25" width="120" height="120"/><rect class="cls-1" x="2160.27" y="720.25" width="120" height="120"/><rect class="cls-1" x="2280.27" y="720.25" width="120" height="120"/><rect class="cls-1" x="2400.27" y="720.25" width="120" height="120"/><rect class="cls-1" x="2520.27" y="720.25" width="120" height="120"/><rect class="cls-1" x="2640.27" y="720.25" width="120" height="120"/><rect class="cls-1" x="2760.27" y="720.25" width="120" height="120"/><rect class="cls-1" x="1800.27" y="600.25" width="120" height="120"/><rect class="cls-1" x="1920.27" y="600.25" width="120" height="120"/><rect class="cls-1" x="2040.27" y="600.25" width="120" height="120"/><rect class="cls-1" x="2160.27" y="600.25" width="120" height="120"/><rect class="cls-1" x="2280.27" y="600.25" width="120" height="120"/><rect class="cls-1" x="2400.27" y="600.25" width="120" height="120"/><rect class="cls-1" x="2520.27" y="600.25" width="120" height="120"/><rect class="cls-1" x="2640.27" y="600.25" width="120" height="120"/><rect class="cls-1" x="2760.27" y="600.25" width="120" height="120"/></g><rect class="cls-1" x=".25" y="1560.11" width="120" height="120"/><rect class="cls-1" x="120.25" y="1560.11" width="120" height="120"/><rect class="cls-1" x="240.25" y="1560.11" width="120" height="120"/><rect class="cls-1" x="360.25" y="1560.11" width="120" height="120"/><rect class="cls-1" x="480.25" y="1560.11" width="120" height="120"/><rect class="cls-1" x="600.25" y="1560.11" width="120" height="120"/><rect class="cls-1" x=".25" y="1440.11" width="120" height="120"/><rect class="cls-1" x="120.25" y="1440.11" width="120" height="120"/><rect class="cls-1" x="240.25" y="1440.11" width="120" height="120"/><rect class="cls-1" x="360.25" y="1440.11" width="120" height="120"/><rect class="cls-1" x="480.25" y="1440.11" width="120" height="120"/><rect class="cls-1" x="600.25" y="1440.11" width="120" height="120"/><rect class="cls-1" x=".25" y="1320.11" width="120" height="120"/><rect class="cls-1" x="120.25" y="1320.11" width="120" height="120"/><rect class="cls-1" x="240.25" y="1320.11" width="120" height="120"/><rect class="cls-1" x="360.25" y="1320.11" width="120" height="120"/><rect class="cls-1" x="480.25" y="1320.11" width="120" height="120"/><rect class="cls-1" x="600.25" y="1320.11" width="120" height="120"/><rect class="cls-1" x=".25" y="1200.11" width="120" height="120"/><rect class="cls-1" x="120.25" y="1200.11" width="120" height="120"/><rect class="cls-1" x="240.25" y="1200.11" width="120" height="120"/><rect class="cls-1" x="360.25" y="1200.11" width="120" height="120"/><rect class="cls-1" x="480.25" y="1200.11" width="120" height="120"/><rect class="cls-1" x="600.25" y="1200.11" width="120" height="120"/><rect class="cls-1" x=".25" y="1080.11" width="120" height="120"/><rect class="cls-1" x="120.25" y="1080.11" width="120" height="120"/><rect class="cls-1" x="240.25" y="1080.11" width="120" height="120"/><rect class="cls-1" x="360.25" y="1080.11" width="120" height="120"/><rect class="cls-1" x="480.25" y="1080.11" width="120" height="120"/><rect class="cls-1" x="600.25" y="1080.11" width="120" height="120"/><rect class="cls-1" x=".25" y="1800.11" width="120" height="120"/><rect class="cls-1" x="120.25" y="1800.11" width="120" height="120"/><rect class="cls-1" x="240.25" y="1800.11" width="120" height="120"/><rect class="cls-1" x="360.25" y="1800.11" width="120" height="120"/><rect class="cls-1" x="480.25" y="1800.11" width="120" height="120"/><rect class="cls-1" x="600.25" y="1800.11" width="120" height="120"/><rect class="cls-1" x=".25" y="1680.11" width="120" height="120"/><rect class="cls-1" x="120.25" y="1680.11" width="120" height="120"/><rect class="cls-1" x="240.25" y="1680.11" width="120" height="120"/><rect class="cls-1" x="360.25" y="1680.11" width="120" height="120"/><rect class="cls-1" x="480.25" y="1680.11" width="120" height="120"/><rect class="cls-1" x="600.25" y="1680.11" width="120" height="120"/><rect class="cls-1" x="720.25" y="1560.11" width="120" height="120"/><rect class="cls-1" x="840.25" y="1560.11" width="120" height="120"/><rect class="cls-1" x="960.25" y="1560.11" width="120" height="120"/><rect class="cls-1" x="1080.25" y="1560.11" width="120" height="120"/><rect class="cls-1" x="1200.25" y="1560.11" width="120" height="120"/><rect class="cls-1" x="1320.25" y="1560.11" width="120" height="120"/><rect class="cls-1" x="1440.25" y="1560.11" width="120" height="120"/><rect class="cls-1" x="1560.25" y="1560.11" width="120" height="120"/><rect class="cls-1" x="1680.25" y="1560.11" width="120" height="120"/><rect class="cls-1" x="720.25" y="1440.11" width="120" height="120"/><rect class="cls-1" x="840.25" y="1440.11" width="120" height="120"/><rect class="cls-1" x="960.25" y="1440.11" width="120" height="120"/><rect class="cls-1" x="1080.25" y="1440.11" width="120" height="120"/><rect class="cls-1" x="1200.25" y="1440.11" width="120" height="120"/><rect class="cls-1" x="1320.25" y="1440.11" width="120" height="120"/><rect class="cls-1" x="1440.25" y="1440.11" width="120" height="120"/><rect class="cls-1" x="1560.25" y="1440.11" width="120" height="120"/><rect class="cls-1" x="1680.25" y="1440.11" width="120" height="120"/><rect class="cls-1" x="720.25" y="1320.11" width="120" height="120"/><rect class="cls-1" x="840.25" y="1320.11" width="120" height="120"/><rect class="cls-1" x="960.25" y="1320.11" width="120" height="120"/><rect class="cls-1" x="1080.25" y="1320.11" width="120" height="120"/><rect class="cls-1" x="1200.25" y="1320.11" width="120" height="120"/><rect class="cls-1" x="1320.25" y="1320.11" width="120" height="120"/><rect class="cls-1" x="1440.25" y="1320.11" width="120" height="120"/><rect class="cls-1" x="1560.25" y="1320.11" width="120" height="120"/><rect class="cls-1" x="1680.25" y="1320.11" width="120" height="120"/><rect class="cls-1" x="720.25" y="1200.11" width="120" height="120"/><rect class="cls-1" x="840.25" y="1200.11" width="120" height="120"/><rect class="cls-1" x="960.25" y="1200.11" width="120" height="120"/><rect class="cls-1" x="1080.25" y="1200.11" width="120" height="120"/><rect class="cls-1" x="1200.25" y="1200.11" width="120" height="120"/><rect class="cls-1" x="1320.25" y="1200.11" width="120" height="120"/><rect class="cls-1" x="1440.25" y="1200.11" width="120" height="120"/><rect class="cls-1" x="1560.25" y="1200.11" width="120" height="120"/><rect class="cls-1" x="1680.25" y="1200.11" width="120" height="120"/><rect class="cls-1" x="720.25" y="1080.11" width="120" height="120"/><rect class="cls-1" x="840.25" y="1080.11" width="120" height="120"/><rect class="cls-1" x="960.25" y="1080.11" width="120" height="120"/><rect class="cls-1" x="1080.25" y="1080.11" width="120" height="120"/><rect class="cls-1" x="1200.25" y="1080.11" width="120" height="120"/><rect class="cls-1" x="1320.25" y="1080.11" width="120" height="120"/><rect class="cls-1" x="1440.25" y="1080.11" width="120" height="120"/><rect class="cls-1" x="1560.25" y="1080.11" width="120" height="120"/><rect class="cls-1" x="1680.25" y="1080.11" width="120" height="120"/><rect class="cls-1" x="720.25" y="1800.11" width="120" height="120"/><rect class="cls-1" x="840.25" y="1800.11" width="120" height="120"/><rect class="cls-1" x="960.25" y="1800.11" width="120" height="120"/><rect class="cls-1" x="1080.25" y="1800.11" width="120" height="120"/><rect class="cls-1" x="1200.25" y="1800.11" width="120" height="120"/><rect class="cls-1" x="1320.25" y="1800.11" width="120" height="120"/><rect class="cls-1" x="1440.25" y="1800.11" width="120" height="120"/><rect class="cls-1" x="1560.25" y="1800.11" width="120" height="120"/><rect class="cls-1" x="1680.25" y="1800.11" width="120" height="120"/><rect class="cls-1" x="720.25" y="1680.11" width="120" height="120"/><rect class="cls-1" x="840.25" y="1680.11" width="120" height="120"/><rect class="cls-1" x="960.25" y="1680.11" width="120" height="120"/><rect class="cls-1" x="1080.25" y="1680.11" width="120" height="120"/><rect class="cls-1" x="1200.25" y="1680.11" width="120" height="120"/><rect class="cls-1" x="1320.25" y="1680.11" width="120" height="120"/><rect class="cls-1" x="1440.25" y="1680.11" width="120" height="120"/><rect class="cls-1" x="1560.25" y="1680.11" width="120" height="120"/><rect class="cls-1" x="1680.25" y="1680.11" width="120" height="120"/><rect class="cls-1" x="1800.27" y="1560.11" width="120" height="120"/><rect class="cls-1" x="1920.27" y="1560.11" width="120" height="120"/><rect class="cls-1" x="2040.27" y="1560.11" width="120" height="120"/><rect class="cls-1" x="2160.27" y="1560.11" width="120" height="120"/><rect class="cls-1" x="2280.27" y="1560.11" width="120" height="120"/><rect class="cls-1" x="2400.27" y="1560.11" width="120" height="120"/><rect class="cls-1" x="2520.27" y="1560.11" width="120" height="120"/><rect class="cls-1" x="2640.27" y="1560.11" width="120" height="120"/><rect class="cls-1" x="2760.27" y="1560.11" width="120" height="120"/><rect class="cls-1" x="1800.27" y="1440.11" width="120" height="120"/><rect class="cls-1" x="1920.27" y="1440.11" width="120" height="120"/><rect class="cls-1" x="2040.27" y="1440.11" width="120" height="120"/><rect class="cls-1" x="2160.27" y="1440.11" width="120" height="120"/><rect class="cls-1" x="2280.27" y="1440.11" width="120" height="120"/><rect class="cls-1" x="2400.27" y="1440.11" width="120" height="120"/><rect class="cls-1" x="2520.27" y="1440.11" width="120" height="120"/><rect class="cls-1" x="2640.27" y="1440.11" width="120" height="120"/><rect class="cls-1" x="2760.27" y="1440.11" width="120" height="120"/><rect class="cls-1" x="1800.27" y="1320.11" width="120" height="120"/><rect class="cls-1" x="1920.27" y="1320.11" width="120" height="120"/><rect class="cls-1" x="2040.27" y="1320.11" width="120" height="120"/><rect class="cls-1" x="2160.27" y="1320.11" width="120" height="120"/><rect class="cls-1" x="2280.27" y="1320.11" width="120" height="120"/><rect class="cls-1" x="2400.27" y="1320.11" width="120" height="120"/><rect class="cls-1" x="2520.27" y="1320.11" width="120" height="120"/><rect class="cls-1" x="2640.27" y="1320.11" width="120" height="120"/><rect class="cls-1" x="2760.27" y="1320.11" width="120" height="120"/><rect class="cls-1" x="1800.27" y="1200.11" width="120" height="120"/><rect class="cls-1" x="1920.27" y="1200.11" width="120" height="120"/><rect class="cls-1" x="2040.27" y="1200.11" width="120" height="120"/><rect class="cls-1" x="2160.27" y="1200.11" width="120" height="120"/><rect class="cls-1" x="2280.27" y="1200.11" width="120" height="120"/><rect class="cls-1" x="2400.27" y="1200.11" width="120" height="120"/><rect class="cls-1" x="2520.27" y="1200.11" width="120" height="120"/><rect class="cls-1" x="2640.27" y="1200.11" width="120" height="120"/><rect class="cls-1" x="2760.27" y="1200.11" width="120" height="120"/><rect class="cls-1" x="1800.27" y="1080.11" width="120" height="120"/><rect class="cls-1" x="1920.27" y="1080.11" width="120" height="120"/><rect class="cls-1" x="2040.27" y="1080.11" width="120" height="120"/><rect class="cls-1" x="2160.27" y="1080.11" width="120" height="120"/><rect class="cls-1" x="2280.27" y="1080.11" width="120" height="120"/><rect class="cls-1" x="2400.27" y="1080.11" width="120" height="120"/><rect class="cls-1" x="2520.27" y="1080.11" width="120" height="120"/><rect class="cls-1" x="2640.27" y="1080.11" width="120" height="120"/><rect class="cls-1" x="2760.27" y="1080.11" width="120" height="120"/><rect class="cls-1" x="1800.27" y="1800.11" width="120" height="120"/><rect class="cls-1" x="1920.27" y="1800.11" width="120" height="120"/><rect class="cls-1" x="2040.27" y="1800.11" width="120" height="120"/><rect class="cls-1" x="2160.27" y="1800.11" width="120" height="120"/><rect class="cls-1" x="2280.27" y="1800.11" width="120" height="120"/><rect class="cls-1" x="2400.27" y="1800.11" width="120" height="120"/><rect class="cls-1" x="2520.27" y="1800.11" width="120" height="120"/><rect class="cls-1" x="2640.27" y="1800.11" width="120" height="120"/><rect class="cls-1" x="2760.27" y="1800.11" width="120" height="120"/><rect class="cls-1" x="1800.27" y="1680.11" width="120" height="120"/><rect class="cls-1" x="1920.27" y="1680.11" width="120" height="120"/><rect class="cls-1" x="2040.27" y="1680.11" width="120" height="120"/><rect class="cls-1" x="2160.27" y="1680.11" width="120" height="120"/><rect class="cls-1" x="2280.27" y="1680.11" width="120" height="120"/><rect class="cls-1" x="2400.27" y="1680.11" width="120" height="120"/><rect class="cls-1" x="2520.27" y="1680.11" width="120" height="120"/><rect class="cls-1" x="2640.27" y="1680.11" width="120" height="120"/><rect class="cls-1" x="2760.27" y="1680.11" width="120" height="120"/></g></g></svg>