<svg width="39" height="23" viewBox="0 0 39 23" fill="none" xmlns="http://www.w3.org/2000/svg">
<path d="M23.706 0.0512466L15.0873 0.0694777L11.8788 4.78525L11.8636 4.80956L11.8667 4.8126L7.5634 11.1084L4.32151 15.8272H4.29718L4.29414 15.8303L1.36853 20.1328L0 22.123H0.0121647L0 22.1413L4.3063 22.1321L8.61869 22.1413L11.8575 17.4224L11.8393 17.3921L16.1882 11.1023L19.4118 6.36528L23.706 0.0512466Z" fill="#4156E1"/>
<path d="M11.8825 4.76812L15.1063 0.018946L23.7689 0L17.2236 9.83871L8.73252 22.034L4.19214 16.0836L11.8825 4.76812Z" fill="url(#paint0_linear_1011_11723)"/>
<path d="M39 22.1352L34.7059 15.8242L34.7028 15.8211H34.6998L31.4822 11.0932L27.1334 4.80349L23.9128 0.0512466L15.2941 0.0694777L19.6156 6.36528L21.2913 8.80825L22.8575 11.0871L27.1577 17.3829V17.386L27.1729 17.4103L30.3813 22.123L39 22.1413L38.9939 22.1352H39Z" fill="#4156E1"/>
<defs>
<linearGradient id="paint0_linear_1011_11723" x1="8.67354" y1="15.3767" x2="19.6406" y2="3.18084" gradientUnits="userSpaceOnUse">
<stop offset="0.0863577" stop-color="#1B2F4E" stop-opacity="0"/>
<stop offset="1" stop-color="#1B2F4E"/>
</linearGradient>
</defs>
</svg>
