<svg width="39" height="23" viewBox="0 0 39 23" fill="none" xmlns="http://www.w3.org/2000/svg">
<path d="M23.706 0.333774L15.0873 0.352005L11.8788 5.06778L11.8636 5.09209L11.8667 5.09513L7.5634 11.3909L4.32151 16.1097H4.29718L4.29414 16.1128L1.36853 20.4153L0 22.4056H0.0121647L0 22.4238L4.3063 22.4147L8.61869 22.4238L11.8575 17.705L11.8393 17.6746L16.1882 11.3849L19.4118 6.64781L23.706 0.333774Z" fill="#1B2F4E"/>
<path d="M11.8825 5.05065L15.1063 0.30147L23.7689 0.282524L17.2236 10.1212L8.73252 22.3165L4.19214 16.3662L11.8825 5.05065Z" fill="url(#paint0_linear_1011_12984)"/>
<path d="M39 22.4177L34.7059 16.1067L34.7028 16.1037H34.6998L31.4822 11.3757L27.1334 5.08601L23.9128 0.333774L15.2941 0.352005L19.6156 6.64781L21.2913 9.09078L22.8575 11.3697L27.1577 17.6655V17.6685L27.1729 17.6928L30.3813 22.4056L39 22.4238L38.9939 22.4177H39Z" fill="#1B2F4E"/>
<defs>
<linearGradient id="paint0_linear_1011_12984" x1="8.67354" y1="15.6592" x2="19.6406" y2="3.46337" gradientUnits="userSpaceOnUse">
<stop offset="0.0863577" stop-color="#1A1A1A" stop-opacity="0"/>
<stop offset="1" stop-color="#1A1A1A"/>
</linearGradient>
</defs>
</svg>
