<svg width="39" height="23" viewBox="0 0 39 23" fill="none" xmlns="http://www.w3.org/2000/svg">
<path d="M23.706 0.192513L15.0873 0.210744L11.8788 4.92652L11.8636 4.95083L11.8667 4.95387L7.5634 11.2497L4.32151 15.9685H4.29718L4.29414 15.9715L1.36853 20.2741L0 22.2643H0.0121647L0 22.2825L4.3063 22.2734L8.61869 22.2825L11.8575 17.5637L11.8393 17.5333L16.1882 11.2436L19.4118 6.50655L23.706 0.192513Z" fill="#EDF2EF"/>
<path d="M11.8825 4.90938L15.1063 0.160208L23.7689 0.141262L17.2236 9.97997L8.73252 22.1753L4.19214 16.2249L11.8825 4.90938Z" fill="url(#paint0_linear_1011_11725)"/>
<path d="M39 22.2764L34.7059 15.9654L34.7028 15.9624H34.6998L31.4822 11.2345L27.1334 4.94475L23.9128 0.192513L15.2941 0.210744L19.6156 6.50655L21.2913 8.94952L22.8575 11.2284L27.1577 17.5242V17.5272L27.1729 17.5516L30.3813 22.2643L39 22.2825L38.9939 22.2764H39Z" fill="#EDF2EF"/>
<defs>
<linearGradient id="paint0_linear_1011_11725" x1="8.67354" y1="15.5179" x2="19.6406" y2="3.3221" gradientUnits="userSpaceOnUse">
<stop offset="0.0863577" stop-color="#1A1A1A" stop-opacity="0"/>
<stop offset="1" stop-color="#1A1A1A"/>
</linearGradient>
</defs>
</svg>
