<?xml version="1.0" encoding="UTF-8" standalone="no"?>
<svg
   xmlns:dc="http://purl.org/dc/elements/1.1/"
   xmlns:cc="http://creativecommons.org/ns#"
   xmlns:rdf="http://www.w3.org/1999/02/22-rdf-syntax-ns#"
   xmlns:svg="http://www.w3.org/2000/svg"
   xmlns="http://www.w3.org/2000/svg"
   xmlns:sodipodi="http://sodipodi.sourceforge.net/DTD/sodipodi-0.dtd"
   xmlns:inkscape="http://www.inkscape.org/namespaces/inkscape"
   width="256"
   height="256"
   style="cursor: default;"
   version="1.1"
   id="svg16"
   sodipodi:docname="electron_svelte.svg"
   inkscape:export-filename="/home/davide/electron_svelte.png"
   inkscape:export-xdpi="192"
   inkscape:export-ydpi="192"
   inkscape:version="1.0.2 (e86c870879, 2021-01-15)">
  <metadata
     id="metadata22">
    <rdf:RDF>
      <cc:Work
         rdf:about="">
        <dc:format>image/svg+xml</dc:format>
        <dc:type
           rdf:resource="http://purl.org/dc/dcmitype/StillImage" />
      </cc:Work>
    </rdf:RDF>
  </metadata>
  <defs
     id="defs20" />
  <sodipodi:namedview
     pagecolor="#ffffff"
     bordercolor="#666666"
     borderopacity="1"
     objecttolerance="10"
     gridtolerance="10"
     guidetolerance="10"
     inkscape:pageopacity="0"
     inkscape:pageshadow="2"
     inkscape:window-width="2559"
     inkscape:window-height="979"
     id="namedview18"
     showgrid="false"
     inkscape:zoom="2.8632812"
     inkscape:cx="128"
     inkscape:cy="128"
     inkscape:window-x="1"
     inkscape:window-y="34"
     inkscape:window-maximized="1"
     inkscape:current-layer="svg16"
     inkscape:document-rotation="0" />
  <g
     fill="none"
     fill-rule="evenodd"
     id="g14">
    <circle
       fill="#2B2E3A"
       cx="128"
       cy="128"
       r="128"
       id="circle2" />
    <g
       fill="#9FEAF9"
       fill-rule="nonzero"
       id="g12">
      <path
         d="M100.502 71.69c-26.005-4.736-46.567.221-54.762 14.415-6.115 10.592-4.367 24.635 4.24 39.646a2.667 2.667 0 1 0 4.626-2.653c-7.752-13.522-9.261-25.641-4.247-34.326 6.808-11.791 25.148-16.213 49.187-11.835a2.667 2.667 0 0 0 .956-5.247zm-36.999 72.307c10.515 11.555 24.176 22.394 39.756 31.388 37.723 21.78 77.883 27.601 97.675 14.106a2.667 2.667 0 1 0-3.005-4.406c-17.714 12.078-55.862 6.548-92.003-14.318-15.114-8.726-28.343-19.222-38.478-30.36a2.667 2.667 0 1 0-3.945 3.59z"
         id="path4" />
      <path
         d="M194.62 140.753c17.028-20.116 22.973-40.348 14.795-54.512-6.017-10.423-18.738-15.926-35.645-16.146a2.667 2.667 0 0 0-.069 5.333c15.205.198 26.165 4.939 31.096 13.48 6.792 11.765 1.49 29.807-14.248 48.399a2.667 2.667 0 1 0 4.071 3.446zm-43.761-68.175c-15.396 3.299-31.784 9.749-47.522 18.835-38.942 22.483-64.345 55.636-60.817 79.675a2.667 2.667 0 1 0 5.277-.775c-3.133-21.344 20.947-52.769 58.207-74.281 15.267-8.815 31.135-15.06 45.972-18.239a2.667 2.667 0 1 0-1.117-5.215z"
         id="path6" />
      <path
         d="M87.77 187.753c8.904 24.86 23.469 40.167 39.847 40.167 11.945 0 22.996-8.143 31.614-22.478a2.667 2.667 0 1 0-4.571-2.748c-7.745 12.883-17.258 19.892-27.043 19.892-13.605 0-26.596-13.652-34.825-36.63a2.667 2.667 0 1 0-5.021 1.797zm81.322-4.863c4.61-14.728 7.085-31.718 7.085-49.423 0-44.179-15.463-82.263-37.487-92.042a2.667 2.667 0 0 0-2.164 4.874c19.643 8.723 34.317 44.866 34.317 87.168 0 17.177-2.397 33.63-6.84 47.83a2.667 2.667 0 1 0 5.09 1.593zm50.224-2.612c0-7.049-5.714-12.763-12.763-12.763-7.049 0-12.763 5.714-12.763 12.763 0 7.049 5.714 12.763 12.763 12.763 7.049 0 12.763-5.714 12.763-12.763zm-5.333 0a7.43 7.43 0 1 1-14.86 0 7.43 7.43 0 0 1 14.86 0zM48.497 193.041c7.05 0 12.764-5.714 12.764-12.763 0-7.049-5.715-12.763-12.764-12.763-7.048 0-12.763 5.714-12.763 12.763 0 7.049 5.715 12.763 12.763 12.763zm0-5.333a7.43 7.43 0 1 1 0-14.86 7.43 7.43 0 0 1 0 14.86z"
         id="path8" />
      <path
         d="M127.617 54.444c7.049 0 12.763-5.714 12.763-12.763 0-7.049-5.714-12.763-12.763-12.763-7.049 0-12.763 5.714-12.763 12.763 0 7.049 5.714 12.763 12.763 12.763zm0-5.333a7.43 7.43 0 1 1 0-14.86 7.43 7.43 0 0 1 0 14.86zm1.949 93.382c-4.985 1.077-9.896-2.091-10.975-7.076a9.236 9.236 0 0 1 7.076-10.976c4.985-1.077 9.896 2.091 10.976 7.076 1.077 4.985-2.091 9.897-7.077 10.976z"
         id="path10" />
    </g>
  </g>
  <g
     id="g861"
     transform="matrix(1.1509868,0,0,1.1509868,-17.678179,-20.73326)">
    <path
       class="st0"
       d="m 150.7108,104.72628 c -6.15225,-8.861491 -18.4003,-11.457852 -27.20535,-5.870031 l -15.52172,9.933901 c -4.2332,2.65281 -7.16822,6.99889 -8.01486,11.9094 -0.733755,4.12031 -0.112886,8.35351 1.86261,12.02227 -1.35463,2.03194 -2.257709,4.28964 -2.652807,6.66023 -0.903082,5.0234 0.282213,10.21612 3.217237,14.33643 6.20869,8.86149 18.4003,11.45786 27.20535,5.87004 l 15.52172,-9.87746 c 4.2332,-2.65281 7.16821,-6.99889 8.01485,-11.9094 0.73376,-4.12031 0.11288,-8.35351 -1.86261,-12.02228 1.35463,-2.03193 2.25771,-4.28964 2.65281,-6.66023 0.95953,-5.07983 -0.22578,-10.27256 -3.21723,-14.39287"
       id="path4-3"
       style="fill:#ff3e00;stroke-width:0.564426" />
    <path
       class="st1"
       d="m 121.9815,154.56512 c -5.02339,1.29818 -10.27256,-0.67731 -13.20758,-4.91051 -1.80616,-2.48347 -2.48347,-5.58782 -1.97549,-8.63572 0.11289,-0.50798 0.22577,-0.95952 0.33866,-1.46751 l 0.28221,-0.90308 0.7902,0.56443 c 1.8626,1.35462 3.89454,2.37059 6.0958,3.0479 l 0.56443,0.16933 -0.0564,0.56442 c -0.0564,0.7902 0.16933,1.63684 0.62087,2.31415 0.90308,1.29818 2.48347,1.91905 4.00742,1.52395 0.33866,-0.11288 0.67732,-0.22577 0.95953,-0.3951 l 15.46527,-9.87746 c 0.79021,-0.50798 1.29818,-1.24174 1.46751,-2.14482 0.16933,-0.90308 -0.0564,-1.8626 -0.56442,-2.59636 -0.90309,-1.29818 -2.48348,-1.86261 -4.00743,-1.46751 -0.33866,0.11289 -0.67731,0.22577 -0.95953,0.3951 l -5.92647,3.78166 c -0.95953,0.62087 -2.03194,1.07241 -3.16079,1.35462 -5.02339,1.29818 -10.27255,-0.67731 -13.20757,-4.91051 -1.74972,-2.48347 -2.48348,-5.58781 -1.91905,-8.63572 0.50798,-2.93501 2.31415,-5.58782 4.85407,-7.16821 l 15.52172,-9.87746 c 0.95952,-0.62087 2.03193,-1.07241 3.16078,-1.41107 5.0234,-1.29818 10.27256,0.67731 13.20758,4.91051 1.80616,2.48348 2.48348,5.58782 1.97549,8.63572 -0.11289,0.50799 -0.22577,0.95953 -0.3951,1.46751 l -0.28221,0.90308 -0.7902,-0.56442 c -1.86261,-1.35462 -3.89454,-2.37059 -6.0958,-3.0479 l -0.56443,-0.16933 0.0564,-0.56443 c 0.0565,-0.79019 -0.16932,-1.63683 -0.62086,-2.31415 -0.90309,-1.29818 -2.48348,-1.8626 -4.00743,-1.4675 -0.33866,0.11288 -0.67731,0.22577 -0.95953,0.39509 l -15.46528,9.87746 c -0.79019,0.50799 -1.29818,1.24174 -1.4675,2.14482 -0.16933,0.90309 0.0564,1.86261 0.56443,2.59637 0.90307,1.29818 2.48347,1.8626 4.00742,1.4675 0.33866,-0.11288 0.67731,-0.22577 0.95953,-0.39509 l 5.92647,-3.78166 c 0.95952,-0.62087 2.03193,-1.07241 3.16079,-1.41107 5.02339,-1.29818 10.27256,0.67732 13.20757,4.91051 1.80617,2.48347 2.48348,5.58782 1.97549,8.63572 -0.50798,2.93502 -2.31414,5.58782 -4.85406,7.16822 l -15.52172,9.87746 c -0.95953,0.62086 -2.03194,1.07241 -3.16079,1.41106"
       id="path6-6"
       style="fill:#ffffff;stroke-width:0.564426" />
  </g>
</svg>
