<svg xmlns="http://www.w3.org/2000/svg" width="961.504" height="157.742" viewBox="0 0 961.504 157.742">
  <g id="Group_1224" data-name="Group 1224" transform="translate(-159.75 -8720.324)">
    <path id="Rectangle_616" data-name="Rectangle 616" d="M-.25-.25H80.334V78.708H-.25Zm80.084.5H.25V78.208H79.834Z" transform="translate(160 8720.574)" fill="#949494"/>
    <path id="Rectangle_617" data-name="Rectangle 617" d="M-.25-.25H80.334V78.708H-.25Zm80.084.5H.25V78.208H79.834Z" transform="translate(240.084 8720.574)" fill="#949494"/>
    <path id="Rectangle_618" data-name="Rectangle 618" d="M-.25-.25H80.334V78.708H-.25Zm80.084.5H.25V78.208H79.834Z" transform="translate(320.168 8720.574)" fill="#949494"/>
    <path id="Rectangle_619" data-name="Rectangle 619" d="M-.25-.25H80.334V78.708H-.25Zm80.084.5H.25V78.208H79.834Z" transform="translate(400.251 8720.574)" fill="#949494"/>
    <path id="Rectangle_620" data-name="Rectangle 620" d="M-.25-.25H80.334V78.708H-.25Zm80.084.5H.25V78.208H79.834Z" transform="translate(480.334 8720.574)" fill="#949494"/>
    <path id="Rectangle_621" data-name="Rectangle 621" d="M-.25-.25H80.334V78.708H-.25Zm80.084.5H.25V78.208H79.834Z" transform="translate(560.418 8720.574)" fill="#949494"/>
    <path id="Rectangle_622" data-name="Rectangle 622" d="M-.25-.25H80.334V78.708H-.25Zm80.084.5H.25V78.208H79.834Z" transform="translate(640.502 8720.574)" fill="#949494"/>
    <path id="Rectangle_2829" data-name="Rectangle 2829" d="M-.25-.25H80.334V78.708H-.25Zm80.084.5H.25V78.208H79.834Z" transform="translate(880.754 8720.574)" fill="#949494"/>
    <path id="Rectangle_623" data-name="Rectangle 623" d="M-.25-.25H80.334V78.708H-.25Zm80.084.5H.25V78.208H79.834Z" transform="translate(720.586 8720.574)" fill="#949494"/>
    <path id="Rectangle_2827" data-name="Rectangle 2827" d="M-.25-.25H80.334V78.708H-.25Zm80.084.5H.25V78.208H79.834Z" transform="translate(960.838 8720.574)" fill="#949494"/>
    <path id="Rectangle_624" data-name="Rectangle 624" d="M-.25-.25H80.334V78.708H-.25Zm80.084.5H.25V78.208H79.834Z" transform="translate(800.669 8720.574)" fill="#949494"/>
    <path id="Rectangle_2825" data-name="Rectangle 2825" d="M-.25-.25H80.334V78.708H-.25Zm80.084.5H.25V78.208H79.834Z" transform="translate(1040.92 8720.574)" fill="#949494"/>
    <path id="Rectangle_616-2" data-name="Rectangle 616" d="M-.25-.25H80.334V78.708H-.25Zm80.084.5H.25V78.208H79.834Z" transform="translate(160 8799.358)" fill="#949494"/>
    <path id="Rectangle_617-2" data-name="Rectangle 617" d="M-.25-.25H80.334V78.708H-.25Zm80.084.5H.25V78.208H79.834Z" transform="translate(240.084 8799.358)" fill="#949494"/>
    <path id="Rectangle_618-2" data-name="Rectangle 618" d="M-.25-.25H80.334V78.708H-.25Zm80.084.5H.25V78.208H79.834Z" transform="translate(320.168 8799.358)" fill="#949494"/>
    <path id="Rectangle_619-2" data-name="Rectangle 619" d="M-.25-.25H80.334V78.708H-.25Zm80.084.5H.25V78.208H79.834Z" transform="translate(400.251 8799.358)" fill="#949494"/>
    <path id="Rectangle_620-2" data-name="Rectangle 620" d="M-.25-.25H80.334V78.708H-.25Zm80.084.5H.25V78.208H79.834Z" transform="translate(480.334 8799.358)" fill="#949494"/>
    <path id="Rectangle_621-2" data-name="Rectangle 621" d="M-.25-.25H80.334V78.708H-.25Zm80.084.5H.25V78.208H79.834Z" transform="translate(560.418 8799.358)" fill="#949494"/>
    <path id="Rectangle_622-2" data-name="Rectangle 622" d="M-.25-.25H80.334V78.708H-.25Zm80.084.5H.25V78.208H79.834Z" transform="translate(640.502 8799.358)" fill="#949494"/>
    <path id="Rectangle_2830" data-name="Rectangle 2830" d="M-.25-.25H80.334V78.708H-.25Zm80.084.5H.25V78.208H79.834Z" transform="translate(880.754 8799.358)" fill="#949494"/>
    <path id="Rectangle_623-2" data-name="Rectangle 623" d="M-.25-.25H80.334V78.708H-.25Zm80.084.5H.25V78.208H79.834Z" transform="translate(720.586 8799.358)" fill="#949494"/>
    <path id="Rectangle_2828" data-name="Rectangle 2828" d="M-.25-.25H80.334V78.708H-.25Zm80.084.5H.25V78.208H79.834Z" transform="translate(960.838 8799.358)" fill="#949494"/>
    <path id="Rectangle_624-2" data-name="Rectangle 624" d="M-.25-.25H80.334V78.708H-.25Zm80.084.5H.25V78.208H79.834Z" transform="translate(800.669 8799.358)" fill="#949494"/>
    <path id="Rectangle_2826" data-name="Rectangle 2826" d="M-.25-.25H80.334V78.708H-.25Zm80.084.5H.25V78.208H79.834Z" transform="translate(1040.92 8799.358)" fill="#949494"/>
  </g>
</svg>
